<?xml version="1.0" encoding="UTF-8"?>
<svg width="320" height="320" viewBox="0 0 320 320" xmlns="http://www.w3.org/2000/svg">
  <defs>
    <style>
      .amber { fill: rgb(138, 75, 49); }
      .cream { fill: rgb(245, 241, 232); }
    </style>
  </defs>
  <circle cx="160" cy="160" r="160" class="cream"/>
  <rect x="150" y="50" width="20" height="40" rx="8" class="amber"/>
  <polygon points="160,90 190,110 160,130 130,110" class="amber"/>
  <polygon points="160,140 190,160 160,180 130,160" class="amber"/>
  <polygon points="140,180 170,200 140,220 110,200" class="amber"/>
  <polygon points="180,180 210,200 180,220 150,200" class="amber"/>
  <polygon points="120,220 150,240 120,260 90,240" class="amber"/>
  <polygon points="160,220 190,240 160,260 130,240" class="amber"/>
  <polygon points="200,220 230,240 200,260 170,240" class="amber"/>
</svg>
